<svg preserveAspectRatio="none" width="100%" height="100%" overflow="visible" style="display: block;" viewBox="0 0 158.845 162.233" fill="none" xmlns="http://www.w3.org/2000/svg">
<g id="Y2K_138" filter="url(#filter0_f_0_14)">
<path d="M5.04376 106.072C45.0738 90.5116 52.0737 79.5116 26.0737 65.5416C21.6537 63.1716 23.7137 56.4916 28.7137 57.0016C55.4737 59.7216 59.8338 49.6716 50.0438 18.6016C49.1738 15.8516 52.9638 14.1116 54.4438 16.5816C77.9538 55.9016 93.7338 51.9216 118.804 4.64157C119.494 3.34157 121.474 4.20157 120.964 5.58157C103.904 52.5516 108.414 63.1616 151.934 54.8316C154.814 54.2816 156.044 58.3316 153.344 59.4716C117.434 74.6816 115.774 85.7416 148.354 100.572C151.644 102.072 150.174 107.042 146.614 106.442C112.094 100.702 105.724 109.432 116.504 143.632C117.374 146.382 113.584 148.122 112.104 145.652C88.5938 106.332 72.8138 110.312 47.7438 157.592C47.0538 158.892 45.0737 158.032 45.5837 156.652C63.7137 106.752 57.4838 97.8916 5.99377 109.182C4.02377 109.612 3.16377 106.792 5.05377 106.062L5.04376 106.072Z" fill="white" fill-opacity="0.5"/>
</g>
<defs>
<filter id="filter0_f_0_14" x="-3.13617e-08" y="2.15432e-08" width="158.845" height="162.233" filterUnits="userSpaceOnUse" color-interpolation-filters="sRGB">
<feFlood flood-opacity="0" result="BackgroundImageFix"/>
<feBlend mode="normal" in="SourceGraphic" in2="BackgroundImageFix" result="shape"/>
<feGaussianBlur stdDeviation="2" result="effect1_foregroundBlur_0_14"/>
</filter>
</defs>
</svg>
