<svg preserveAspectRatio="none" width="100%" height="100%" overflow="visible" style="display: block;" viewBox="-90 -90 462.02 629.62" fill="none" xmlns="http://www.w3.org/2000/svg">
<g id="Halo" opacity="0.45" filter="url(#filter0_f_gp_g_halo)" transform="translate(141.01 224.81) scale(1.3) translate(-141.01 -224.81)">
<path d="M141.01 12C141.01 12 146.91 177.99 162.25 188.02C177.59 198.05 270.02 150.33 270.02 150.33C270.02 150.33 183.5 206.1 183.5 224.81C183.5 243.52 270.02 299.29 270.02 299.29C270.02 299.29 176.25 251.32 162.25 261.6C148.25 271.88 141.01 437.62 141.01 437.62C141.01 437.62 133.34 272.84 119.77 261.6C106.2 250.37 12 299.29 12 299.29C12 299.29 98.52 238.37 98.52 224.81C98.52 211.25 12 150.33 12 150.33C12 150.33 108.88 196.57 119.77 188.02C130.65 179.47 141.01 12 141.01 12Z" fill="url(#hv2GpChromaG)"/>
</g>
<g id="Core" filter="url(#filter0_f_gp_g_core)">
<path d="M141.01 12C141.01 12 146.91 177.99 162.25 188.02C177.59 198.05 270.02 150.33 270.02 150.33C270.02 150.33 183.5 206.1 183.5 224.81C183.5 243.52 270.02 299.29 270.02 299.29C270.02 299.29 176.25 251.32 162.25 261.6C148.25 271.88 141.01 437.62 141.01 437.62C141.01 437.62 133.34 272.84 119.77 261.6C106.2 250.37 12 299.29 12 299.29C12 299.29 98.52 238.37 98.52 224.81C98.52 211.25 12 150.33 12 150.33C12 150.33 108.88 196.57 119.77 188.02C130.65 179.47 141.01 12 141.01 12Z" fill="url(#hv2GpChromaG)"/>
</g>
<defs>
<linearGradient id="hv2GpChromaG" x1="0" y1="0" x2="282.02" y2="449.62" gradientUnits="userSpaceOnUse">
<stop offset="0" stop-color="#f37f93"/>
<stop offset="0.5" stop-color="#fae5c8"/>
<stop offset="1" stop-color="#ff9a56"/>
</linearGradient>
<filter id="filter0_f_gp_g_halo" x="-100%" y="-100%" width="300%" height="300%" filterUnits="userSpaceOnUse" color-interpolation-filters="sRGB">
<feFlood flood-opacity="0" result="BackgroundImageFix"/>
<feBlend mode="normal" in="SourceGraphic" in2="BackgroundImageFix" result="shape"/>
<feGaussianBlur stdDeviation="40.5" result="effect1_foregroundBlur"/>
</filter>
<filter id="filter0_f_gp_g_core" x="-60%" y="-60%" width="220%" height="220%" filterUnits="userSpaceOnUse" color-interpolation-filters="sRGB">
<feFlood flood-opacity="0" result="BackgroundImageFix"/>
<feBlend mode="normal" in="SourceGraphic" in2="BackgroundImageFix" result="shape"/>
<feGaussianBlur stdDeviation="5.8" result="effect1_foregroundBlur"/>
</filter>
</defs>
</svg>
